<svg xmlns="http://www.w3.org/2000/svg" viewBox="0 0 32 32">
  <style>
    .apple { fill: #ff6b5a; }
    .indent { fill: transparent; }
    .leaf { fill: #10b981; }
    .stem { fill: #78350f; }

    @media (prefers-color-scheme: dark) {
      .apple { fill: oklch(from #ff6b5a calc(l + 0.02) c h); }
      .leaf { fill: oklch(from #10b981 calc(l + 0.02) c h); }
      .stem { fill: oklch(from #78350f calc(l + 0.05) c h); }
    }
  </style>

  <path class="apple" d="M16 28c-7 0-12-6-12-12 0-5 3-9 6-10 1.5-.5 3-.5 4 0 .8.4 1.5.8 2 .8s1.2-.4 2-.8c1-.5 2.5-.5 4 0 3 1 6 5 6 10 0 6-5 12-12 12z"/>
  <ellipse class="indent" cx="16" cy="7" rx="3" ry="1.5" />
  <path class="stem" d="M16 3c0 0 .5 0 .5 1.5s-.5 2.5-.5 2.5-.5-1-0.5-2.5S16 3 16 3z"/>
  <path class="leaf" d="M17 4c2-2 5-2.5 6-2 .5.5 0 4-2 6-1.5 1.5-3.5 1.5-4 1-.5-.5-.5-2.5 0-5z"/>
</svg>
